<?xml version="1.0" encoding="iso-8859-1"?>
<!-- Generator: Adobe Illustrator 19.0.0, SVG Export Plug-In . SVG Version: 6.00 Build 0)  -->
<svg version="1.1" id="Layer_1" xmlns="http://www.w3.org/2000/svg" xmlns:xlink="http://www.w3.org/1999/xlink" x="0px" y="0px"
	 viewBox="0 0 512 512" style="enable-background:new 0 0 512 512;" xml:space="preserve">
<g transform="translate(0 1)">
	<polygon style="fill:#A76BFA;" points="34.712,502.322 477.288,502.322 477.288,7.678 34.712,7.678 	"/>
	<polygon style="fill:#763096;" points="477.288,502.322 503.322,502.322 503.322,7.678 477.288,7.678 	"/>
	<polygon style="fill:#FFFFFF;" points="8.678,502.322 34.712,502.322 34.712,7.678 8.678,7.678 	"/>
	<g>
		<path style="fill:#FFE100;" d="M216.949,281.034c0,26.034-21.695,47.729-47.729,47.729s-47.729-21.695-47.729-47.729
			s21.695-47.729,47.729-47.729S216.949,255,216.949,281.034L216.949,281.034z"/>
		<path style="fill:#FFE100;" d="M364.475,281.034c0,26.034-21.695,47.729-47.729,47.729s-47.729-21.695-47.729-47.729
			s21.695-47.729,47.729-47.729S364.475,255,364.475,281.034"/>
	</g>
	<path d="M512,511H0V120.492c0-5.207,3.471-8.678,8.678-8.678s8.678,3.471,8.678,8.678v373.153h477.288v-78.102
		c0-5.207,3.471-8.678,8.678-8.678c5.207,0,8.678,3.471,8.678,8.678V511z"/>
	<path d="M503.322,346.119c-5.207,0-8.678-3.471-8.678-8.678V16.356H17.356v34.712c0,5.207-3.471,8.678-8.678,8.678
		S0,56.275,0,51.068V-1h512v338.441C512,342.647,508.529,346.119,503.322,346.119z"/>
	<path d="M17.356,85.78c0-5.207-3.471-8.678-8.678-8.678S0,80.573,0,85.78c0,5.207,3.471,8.678,8.678,8.678
		S17.356,90.986,17.356,85.78"/>
	<path d="M503.322,389.508c-5.207,0-8.678-3.471-8.678-8.678v-8.678c0-5.207,3.471-8.678,8.678-8.678
		c5.207,0,8.678,3.471,8.678,8.678v8.678C512,386.037,508.529,389.508,503.322,389.508z"/>
	<path d="M169.22,337.441c-31.241,0-56.407-25.166-56.407-56.407s25.166-56.407,56.407-56.407s56.407,25.166,56.407,56.407
		S200.461,337.441,169.22,337.441z M169.22,241.983c-21.695,0-39.051,17.356-39.051,39.051s17.356,39.051,39.051,39.051
		s39.051-17.356,39.051-39.051S190.915,241.983,169.22,241.983z"/>
	<path d="M316.746,337.441c-31.241,0-56.407-25.166-56.407-56.407s25.166-56.407,56.407-56.407s56.407,25.166,56.407,56.407
		S347.986,337.441,316.746,337.441z M316.746,241.983c-21.695,0-39.051,17.356-39.051,39.051s17.356,39.051,39.051,39.051
		s39.051-17.356,39.051-39.051S338.441,241.983,316.746,241.983z"/>
	<path d="M121.492,285.373c-5.207,0-8.678-3.471-8.678-8.678c0-66.82,54.671-121.492,121.492-121.492
		c5.207,0,8.678,3.471,8.678,8.678c0,5.207-3.471,8.678-8.678,8.678c-57.275,0-104.136,46.861-104.136,104.136
		C130.169,281.902,126.698,285.373,121.492,285.373z"/>
	<path d="M269.017,285.373c-5.207,0-8.678-3.471-8.678-8.678c0-66.82,54.671-121.492,121.492-121.492
		c5.207,0,8.678,3.471,8.678,8.678c0,5.207-3.471,8.678-8.678,8.678c-57.275,0-104.136,46.861-104.136,104.136
		C277.695,281.902,274.224,285.373,269.017,285.373z"/>
</g>
<g>
</g>
<g>
</g>
<g>
</g>
<g>
</g>
<g>
</g>
<g>
</g>
<g>
</g>
<g>
</g>
<g>
</g>
<g>
</g>
<g>
</g>
<g>
</g>
<g>
</g>
<g>
</g>
<g>
</g>
</svg>
